# Blender 5.1.1
# www.blender.org
mtllib sjoelbak.mtl
o Cube
v 5.000000 0.067386 -1.000000
v 5.000000 -0.067386 -1.000000
v 5.000000 0.067386 1.000000
v 5.000000 -0.067386 1.000000
v -5.000000 0.067386 -1.000000
v -5.000000 -0.067386 -1.000000
v -5.000000 0.067386 1.000000
v -5.000000 -0.067386 1.000000
v -5.000000 -0.067386 -0.874251
v -5.000000 -0.067386 0.874251
v 5.000000 0.067386 -0.874251
v 5.000000 0.067386 0.874251
v -5.000000 0.067386 0.874251
v -5.000000 0.067386 -0.874251
v 5.000000 -0.067386 0.874251
v 5.000000 -0.067386 -0.874251
v -4.850221 -0.067386 -1.000000
v -4.850221 0.067386 1.000000
v -4.850221 -0.067386 1.000000
v -4.850221 0.067386 -1.000000
v -4.850221 -0.067386 -0.874251
v -4.850221 -0.067386 0.874251
v -4.850221 0.067386 -0.874251
v -4.850221 0.067386 0.874251
v -4.850221 0.367386 1.000000
v -5.000000 0.367386 1.000000
v 5.000000 0.367386 0.874251
v 5.000000 0.367386 1.000000
v -5.000000 0.367386 -0.874251
v -5.000000 0.367386 -1.000000
v -4.850221 0.367386 -1.000000
v 5.000000 0.367386 -1.000000
v 5.000000 0.367386 -0.874251
v -5.000000 0.367386 0.874251
v -4.850221 0.367386 -0.874251
v -4.850221 0.367386 0.874251
v -3.954239 -0.067386 1.000000
v -3.830549 -0.067386 1.000000
v -3.954239 0.067386 -1.000000
v -3.830549 0.067386 -1.000000
v -3.954239 0.067386 -0.874251
v -3.830549 0.067386 -0.874251
v -3.954239 0.067386 0.874251
v -3.830549 0.067386 0.874251
v -3.830549 -0.067386 -1.000000
v -3.954239 -0.067386 -1.000000
v -3.830549 0.067386 1.000000
v -3.954239 0.067386 1.000000
v -3.830549 -0.067386 -0.874251
v -3.954239 -0.067386 -0.874251
v -3.830549 -0.067386 0.874251
v -3.954239 -0.067386 0.874251
v -3.954239 0.367386 -1.000000
v -3.830549 0.367386 -1.000000
v -3.954239 0.367386 -0.874251
v -3.830549 0.367386 -0.874251
v -3.954239 0.367386 0.874251
v -3.830549 0.367386 0.874251
v -3.830549 0.367386 1.000000
v -3.954239 0.367386 1.000000
v -5.000000 -0.067386 -0.715296
v -5.000000 -0.067386 -0.556341
v -5.000000 -0.067386 -0.397387
v -5.000000 -0.067386 -0.238432
v -5.000000 -0.067386 -0.079477
v -5.000000 -0.067386 0.079477
v -5.000000 -0.067386 0.238432
v -5.000000 -0.067386 0.397387
v -5.000000 -0.067386 0.556342
v -5.000000 -0.067386 0.715296
v 5.000000 0.067386 -0.715296
v 5.000000 0.067386 -0.556341
v 5.000000 0.067386 -0.397387
v 5.000000 0.067386 -0.238432
v 5.000000 0.067386 -0.079477
v 5.000000 0.067386 0.079477
v 5.000000 0.067386 0.238432
v 5.000000 0.067386 0.397387
v 5.000000 0.067386 0.556342
v 5.000000 0.067386 0.715296
v -5.000000 0.067386 0.715296
v -5.000000 0.067386 0.556341
v -5.000000 0.067386 0.397387
v -5.000000 0.067386 0.238432
v -5.000000 0.067386 0.079477
v -5.000000 0.067386 -0.079477
v -5.000000 0.067386 -0.238432
v -5.000000 0.067386 -0.397387
v -5.000000 0.067386 -0.556342
v -5.000000 0.067386 -0.715296
v 5.000000 -0.067386 0.715296
v 5.000000 -0.067386 0.556341
v 5.000000 -0.067386 0.397387
v 5.000000 -0.067386 0.238432
v 5.000000 -0.067386 0.079477
v 5.000000 -0.067386 -0.079477
v 5.000000 -0.067386 -0.238432
v 5.000000 -0.067386 -0.397387
v 5.000000 -0.067386 -0.556342
v 5.000000 -0.067386 -0.715296
v -4.850221 0.067386 -0.715296
v -4.850221 0.067386 -0.556341
v -4.850221 0.067386 -0.397387
v -4.850221 0.067386 -0.238432
v -4.850221 0.067386 -0.079477
v -4.850221 0.067386 0.079477
v -4.850221 0.067386 0.238432
v -4.850221 0.067386 0.397387
v -4.850221 0.067386 0.556342
v -4.850221 0.067386 0.715296
v -4.850221 -0.067386 -0.715296
v -4.850221 -0.067386 -0.556341
v -4.850221 -0.067386 -0.397387
v -4.850221 -0.067386 -0.238432
v -4.850221 -0.067386 -0.079477
v -4.850221 -0.067386 0.079477
v -4.850221 -0.067386 0.238432
v -4.850221 -0.067386 0.397387
v -4.850221 -0.067386 0.556342
v -4.850221 -0.067386 0.715296
v -5.000000 0.367386 0.715296
v -5.000000 0.367386 0.556341
v -5.000000 0.367386 0.397387
v -5.000000 0.367386 0.238432
v -5.000000 0.367386 0.079477
v -5.000000 0.367386 -0.079477
v -5.000000 0.367386 -0.238432
v -5.000000 0.367386 -0.397387
v -5.000000 0.367386 -0.556342
v -5.000000 0.367386 -0.715296
v -4.850221 0.367386 -0.715296
v -4.850221 0.367386 -0.556341
v -4.850221 0.367386 -0.397387
v -4.850221 0.367386 -0.238432
v -4.850221 0.367386 -0.079477
v -4.850221 0.367386 0.079477
v -4.850221 0.367386 0.238432
v -4.850221 0.367386 0.397387
v -4.850221 0.367386 0.556342
v -4.850221 0.367386 0.715296
v -3.830549 0.067386 -0.715296
v -3.830549 0.067386 -0.556341
v -3.830549 0.067386 -0.397387
v -3.830549 0.067386 -0.238432
v -3.830549 0.067386 -0.079477
v -3.830549 0.067386 0.079477
v -3.830549 0.067386 0.238432
v -3.830549 0.067386 0.397387
v -3.830549 0.067386 0.556342
v -3.830549 0.067386 0.715296
v -3.954239 0.067386 -0.715296
v -3.954239 0.067386 -0.556341
v -3.954239 0.067386 -0.397387
v -3.954239 0.067386 -0.238432
v -3.954239 0.067386 -0.079477
v -3.954239 0.067386 0.079477
v -3.954239 0.067386 0.238432
v -3.954239 0.067386 0.397387
v -3.954239 0.067386 0.556342
v -3.954239 0.067386 0.715296
v -3.954239 -0.067386 -0.715296
v -3.954239 -0.067386 -0.556341
v -3.954239 -0.067386 -0.397387
v -3.954239 -0.067386 -0.238432
v -3.954239 -0.067386 -0.079477
v -3.954239 -0.067386 0.079477
v -3.954239 -0.067386 0.238432
v -3.954239 -0.067386 0.397387
v -3.954239 -0.067386 0.556342
v -3.954239 -0.067386 0.715296
v -3.830549 -0.067386 -0.715296
v -3.830549 -0.067386 -0.556341
v -3.830549 -0.067386 -0.397387
v -3.830549 -0.067386 -0.238432
v -3.830549 -0.067386 -0.079477
v -3.830549 -0.067386 0.079477
v -3.830549 -0.067386 0.238432
v -3.830549 -0.067386 0.397387
v -3.830549 -0.067386 0.556342
v -3.830549 -0.067386 0.715296
v -3.830549 0.367386 -0.715296
v -3.830549 0.367386 -0.397387
v -3.830549 0.367386 -0.079477
v -3.830549 0.367386 0.079500
v -3.830549 0.367386 0.238432
v -3.830549 0.367386 0.556342
v -3.954239 0.367386 -0.715296
v -3.954239 0.367386 -0.556319
v -3.954239 0.367386 -0.397387
v -3.954239 0.367386 -0.238409
v -3.954239 0.367386 -0.079477
v -3.954239 0.367386 0.238432
v -3.954239 0.367386 0.556342
v -3.830549 0.217386 -0.874251
v -3.830549 0.217386 -0.715296
v -3.954239 0.217386 -0.715296
v -3.954239 0.217386 -0.556319
v -3.830549 0.217386 -0.397387
v -3.954239 0.217386 -0.397387
v -3.830549 0.217386 -0.079477
v -3.954239 0.217386 -0.079477
v -3.954239 0.217386 -0.238409
v -3.830549 0.217386 0.238432
v -3.954239 0.217386 0.238432
v -3.830549 0.217386 0.556342
v -3.954239 0.217386 0.556342
v -3.830549 0.217386 0.874251
v -3.830549 0.367386 -0.556319
v -3.830549 0.217386 -0.556319
v -3.830549 0.367386 -0.238409
v -3.830549 0.217386 -0.238409
v -3.954239 0.367386 0.079500
v -3.830549 0.217386 0.079500
v -3.954239 0.217386 0.079500
v -3.954239 0.367386 0.397409
v -3.830549 0.367386 0.397409
v -3.830549 0.217386 0.397409
v -3.954239 0.217386 0.397409
v -3.954239 0.367386 0.715319
v -3.830549 0.367386 0.715319
v -3.830549 0.217386 0.715319
v -3.954239 0.217386 0.715319
v -4.850221 0.217386 0.874251
v -4.850221 0.217386 -0.874251
v -4.850221 0.217386 1.000000
v 5.000000 0.217386 1.000000
v -5.000000 0.217386 -0.874251
v -5.000000 0.217386 -1.000000
v 5.000000 0.217386 -0.874251
v -5.000000 0.217386 1.000000
v -5.000000 0.217386 0.874251
v -4.850221 0.217386 -1.000000
v 5.000000 0.217386 -1.000000
v 5.000000 0.217386 0.874251
v -3.954239 0.217386 0.874251
v -3.830549 0.217386 -1.000000
v -3.954239 0.217386 -1.000000
v -3.954239 0.217386 1.000000
v -3.830549 0.217386 1.000000
v -3.954239 0.217386 -0.874251
v -5.000000 0.217386 -0.715296
v -5.000000 0.217386 -0.556342
v -5.000000 0.217386 -0.397387
v -5.000000 0.217386 -0.238432
v -5.000000 0.217386 -0.079477
v -5.000000 0.217386 0.079477
v -5.000000 0.217386 0.238432
v -5.000000 0.217386 0.397387
v -5.000000 0.217386 0.556341
v -5.000000 0.217386 0.715296
v -4.850221 0.217386 0.715296
v -4.850221 0.217386 0.556342
v -4.850221 0.217386 0.397387
v -4.850221 0.217386 0.238432
v -4.850221 0.217386 0.079477
v -4.850221 0.217386 -0.079477
v -4.850221 0.217386 -0.238432
v -4.850221 0.217386 -0.397387
v -4.850221 0.217386 -0.556341
v -4.850221 0.217386 -0.715296
v -5.000000 -0.067386 -0.503357
v -5.000000 -0.067386 -0.450372
v 5.000000 0.067386 -0.503357
v 5.000000 0.067386 -0.450372
v -5.000000 0.067386 -0.450372
v -5.000000 0.067386 -0.503357
v 5.000000 -0.067386 -0.450372
v 5.000000 -0.067386 -0.503357
v -4.850221 0.067386 -0.503357
v -4.850221 0.067386 -0.450372
v -4.850221 -0.067386 -0.503357
v -4.850221 -0.067386 -0.450372
v -5.000000 0.367386 -0.450372
v -5.000000 0.367386 -0.503357
v -4.850221 0.367386 -0.503357
v -4.850221 0.367386 -0.450372
v -3.830549 0.067386 -0.503357
v -3.830549 0.067386 -0.450372
v -3.954239 0.067386 -0.503357
v -3.954239 0.067386 -0.450372
v -3.954239 -0.067386 -0.503357
v -3.954239 -0.067386 -0.450372
v -3.830549 -0.067386 -0.503357
v -3.830549 -0.067386 -0.450372
v -3.954239 0.367386 -0.503341
v -3.954239 0.367386 -0.450364
v -3.954239 0.217386 -0.450364
v -3.954239 0.217386 -0.503341
v -4.850221 0.217386 -0.503357
v -4.850221 0.217386 -0.450372
v -5.000000 0.217386 -0.450372
v -5.000000 0.217386 -0.503357
v -3.830549 0.367386 -0.503341
v -3.830549 0.367386 -0.450364
v -3.830549 0.217386 -0.503341
v -3.830549 0.217386 -0.450364
v -5.000000 -0.067386 -0.185447
v -5.000000 -0.067386 -0.132462
v 5.000000 0.067386 -0.185447
v 5.000000 0.067386 -0.132462
v -5.000000 0.067386 -0.132462
v -5.000000 0.067386 -0.185447
v 5.000000 -0.067386 -0.132462
v 5.000000 -0.067386 -0.185447
v -4.850221 0.067386 -0.185447
v -4.850221 0.067386 -0.132462
v -4.850221 -0.067386 -0.185447
v -4.850221 -0.067386 -0.132462
v -5.000000 0.367386 -0.132462
v -5.000000 0.367386 -0.185447
v -4.850221 0.367386 -0.185447
v -4.850221 0.367386 -0.132462
v -3.830549 0.067386 -0.185447
v -3.830549 0.067386 -0.132462
v -3.954239 0.067386 -0.185447
v -3.954239 0.067386 -0.132462
v -3.954239 -0.067386 -0.185447
v -3.954239 -0.067386 -0.132462
v -3.830549 -0.067386 -0.185447
v -3.830549 -0.067386 -0.132462
v -3.954239 0.367386 -0.185432
v -3.954239 0.367386 -0.132455
v -3.954239 0.217386 -0.132455
v -3.954239 0.217386 -0.185432
v -4.850221 0.217386 -0.185447
v -4.850221 0.217386 -0.132462
v -5.000000 0.217386 -0.132462
v -5.000000 0.217386 -0.185447
v -3.830549 0.367386 -0.185432
v -3.830549 0.367386 -0.132455
v -3.830549 0.217386 -0.185432
v -3.830549 0.217386 -0.132455
v -5.000000 -0.067386 0.132462
v -5.000000 -0.067386 0.185447
v 5.000000 0.067386 0.132462
v 5.000000 0.067386 0.185447
v -5.000000 0.067386 0.185447
v -5.000000 0.067386 0.132462
v 5.000000 -0.067386 0.185447
v 5.000000 -0.067386 0.132462
v -4.850221 0.067386 0.132462
v -4.850221 0.067386 0.185447
v -4.850221 -0.067386 0.132462
v -4.850221 -0.067386 0.185447
v -5.000000 0.367386 0.185447
v -5.000000 0.367386 0.132462
v -4.850221 0.367386 0.132462
v -4.850221 0.367386 0.185447
v -3.830549 0.067386 0.132462
v -3.830549 0.067386 0.185447
v -3.954239 0.067386 0.132462
v -3.954239 0.067386 0.185447
v -3.954239 -0.067386 0.132462
v -3.954239 -0.067386 0.185447
v -3.830549 -0.067386 0.132462
v -3.830549 -0.067386 0.185447
v -3.830549 0.367386 0.132477
v -3.830549 0.367386 0.185455
v -4.850221 0.217386 0.132462
v -4.850221 0.217386 0.185447
v -5.000000 0.217386 0.185447
v -5.000000 0.217386 0.132462
v -3.954239 0.367386 0.132477
v -3.954239 0.367386 0.185455
v -3.954239 0.217386 0.185455
v -3.954239 0.217386 0.132477
v -3.830549 0.217386 0.132477
v -3.830549 0.217386 0.185455
v -5.000000 -0.067386 0.450372
v -5.000000 -0.067386 0.503357
v 5.000000 0.067386 0.450372
v 5.000000 0.067386 0.503357
v -5.000000 0.067386 0.503357
v -5.000000 0.067386 0.450372
v 5.000000 -0.067386 0.503357
v 5.000000 -0.067386 0.450372
v -4.850221 0.067386 0.450372
v -4.850221 0.067386 0.503357
v -4.850221 -0.067386 0.450372
v -4.850221 -0.067386 0.503357
v -5.000000 0.367386 0.503357
v -5.000000 0.367386 0.450372
v -4.850221 0.367386 0.450372
v -4.850221 0.367386 0.503357
v -3.830549 0.067386 0.450372
v -3.830549 0.067386 0.503357
v -3.954239 0.067386 0.450372
v -3.954239 0.067386 0.503357
v -3.954239 -0.067386 0.450372
v -3.954239 -0.067386 0.503357
v -3.830549 -0.067386 0.450372
v -3.830549 -0.067386 0.503357
v -4.850221 0.217386 0.450372
v -4.850221 0.217386 0.503357
v -5.000000 0.217386 0.503357
v -5.000000 0.217386 0.450372
v -3.830549 0.367386 0.450387
v -3.830549 0.367386 0.503364
v -3.954239 0.367386 0.450387
v -3.954239 0.367386 0.503364
v -3.954239 0.217386 0.503364
v -3.954239 0.217386 0.450387
v -3.830549 0.217386 0.450387
v -3.830549 0.217386 0.503364
v -3.980464 -0.067386 -1.000000
v -4.823985 -0.067386 -1.000000
v -3.980464 0.067386 1.000000
v -4.823985 0.067386 1.000000
v -3.980464 -0.067386 -0.874251
v -4.823985 -0.067386 -0.874251
v -3.980464 -0.067386 0.874251
v -4.823985 -0.067386 0.874251
v -3.980464 0.367386 1.000000
v -4.823985 0.367386 1.000000
v -4.823985 -0.067386 1.000000
v -3.980464 -0.067386 1.000000
v -4.823985 0.067386 -1.000000
v -3.980464 0.067386 -1.000000
v -4.823985 0.067386 -0.874251
v -3.980464 0.067386 -0.874251
v -4.823985 0.067386 0.874251
v -3.980464 0.067386 0.874251
v -4.823985 0.367386 -1.000000
v -3.980464 0.367386 -1.000000
v -4.823985 0.367386 -0.874251
v -3.980464 0.367386 -0.874251
v -4.823985 0.367386 0.874251
v -3.980464 0.367386 0.874251
v -3.980464 -0.067386 -0.715296
v -4.823985 -0.067386 -0.715296
v -3.980464 -0.067386 -0.556341
v -4.823985 -0.067386 -0.556341
v -3.980464 -0.067386 -0.397387
v -4.823985 -0.067386 -0.397387
v -3.980464 -0.067386 -0.238432
v -4.823985 -0.067386 -0.238432
v -3.980464 -0.067386 -0.079477
v -4.823985 -0.067386 -0.079477
v -3.980464 -0.067386 0.079477
v -4.823985 -0.067386 0.079477
v -3.980464 -0.067386 0.238432
v -4.823985 -0.067386 0.238432
v -3.980464 -0.067386 0.397387
v -4.823985 -0.067386 0.397387
v -3.980464 -0.067386 0.556342
v -4.823985 -0.067386 0.556342
v -3.980464 -0.067386 0.715296
v -4.823985 -0.067386 0.715296
v -4.823985 0.067386 -0.715296
v -3.980464 0.067386 -0.715296
v -4.823985 0.067386 -0.556341
v -3.980464 0.067386 -0.556341
v -4.823985 0.067386 -0.397387
v -3.980464 0.067386 -0.397387
v -4.823985 0.067386 -0.238432
v -3.980464 0.067386 -0.238432
v -4.823985 0.067386 -0.079477
v -3.980464 0.067386 -0.079477
v -4.823985 0.067386 0.079477
v -3.980464 0.067386 0.079477
v -4.823985 0.067386 0.238432
v -3.980464 0.067386 0.238432
v -4.823985 0.067386 0.397387
v -3.980464 0.067386 0.397387
v -4.823985 0.067386 0.556342
v -3.980464 0.067386 0.556342
v -4.823985 0.067386 0.715296
v -3.980464 0.067386 0.715296
v -3.980464 0.217386 -0.874251
v -4.823985 0.217386 -0.874251
v -3.980464 0.217386 1.000000
v -4.823985 0.217386 1.000000
v -4.823985 0.217386 0.874251
v -3.980464 0.217386 0.874251
v -4.823985 0.217386 -1.000000
v -3.980464 0.217386 -1.000000
v -4.823985 0.067386 -0.503357
v -3.980464 0.067386 -0.503357
v -4.823985 0.067386 -0.450372
v -3.980464 0.067386 -0.450372
v -3.980464 -0.067386 -0.503357
v -4.823985 -0.067386 -0.503357
v -3.980464 -0.067386 -0.450372
v -4.823985 -0.067386 -0.450372
v -4.823985 0.067386 -0.185447
v -3.980464 0.067386 -0.185447
v -4.823985 0.067386 -0.132462
v -3.980464 0.067386 -0.132462
v -3.980464 -0.067386 -0.185447
v -4.823985 -0.067386 -0.185447
v -3.980464 -0.067386 -0.132462
v -4.823985 -0.067386 -0.132462
v -4.823985 0.067386 0.132462
v -3.980464 0.067386 0.132462
v -4.823985 0.067386 0.185447
v -3.980464 0.067386 0.185447
v -3.980464 -0.067386 0.132462
v -4.823985 -0.067386 0.132462
v -3.980464 -0.067386 0.185447
v -4.823985 -0.067386 0.185447
v -4.823985 0.067386 0.450372
v -3.980464 0.067386 0.450372
v -4.823985 0.067386 0.503357
v -3.980464 0.067386 0.503357
v -3.980464 -0.067386 0.450372
v -4.823985 -0.067386 0.450372
v -3.980464 -0.067386 0.503357
v -4.823985 -0.067386 0.503357
v -4.823985 0.317014 -0.503357
v -3.980464 0.317014 -0.503357
v -4.823985 0.317014 -0.450372
v -3.980464 0.317014 -0.450372
v -4.823985 0.317014 -0.185447
v -3.980464 0.317014 -0.185447
v -4.823985 0.317014 -0.132462
v -3.980464 0.317014 -0.132462
v -4.823985 0.317014 0.132462
v -3.980464 0.317014 0.132462
v -4.823985 0.317014 0.185447
v -3.980464 0.317014 0.185447
v -4.823985 0.317014 0.450372
v -3.980464 0.317014 0.450372
v -4.823985 0.317014 0.503357
v -3.980464 0.317014 0.503357
v 5.000000 0.292386 1.000000
v -5.000000 0.292386 -0.874251
v 5.000000 0.292386 -0.874251
v -5.000000 0.292386 1.000000
v -4.850221 0.292386 -1.000000
v -3.830549 0.292386 -1.000000
v -3.954239 0.292386 -1.000000
v -3.954239 0.292386 1.000000
v -3.830549 0.292386 1.000000
v -5.000000 0.292386 -0.715296
v -5.000000 0.292386 -0.556342
v -5.000000 0.292386 -0.397387
v -5.000000 0.292386 -0.238432
v -5.000000 0.292386 -0.079477
v -5.000000 0.292386 0.079477
v -5.000000 0.292386 0.238432
v -5.000000 0.292386 0.397387
v -5.000000 0.292386 0.556341
v -5.000000 0.292386 0.715296
v -3.830549 0.292386 -0.079477
v -3.830549 0.292386 -0.715296
v -3.830549 0.292386 -0.397387
v -3.830549 0.292386 0.238432
v -3.830549 0.292386 0.556342
v -3.830549 0.292386 -0.556319
v -3.830549 0.292386 -0.238409
v -3.830549 0.292386 0.397409
v -3.830549 0.292386 0.715319
v -4.850221 0.292386 1.000000
v -5.000000 0.292386 -1.000000
v -5.000000 0.292386 0.874251
v 5.000000 0.292386 -1.000000
v 5.000000 0.292386 0.874251
v -3.830549 0.292386 0.874251
v -3.830549 0.292386 -0.874251
v -3.830549 0.292386 0.079500
v -3.830549 0.292386 -0.450364
v -3.830549 0.292386 -0.503341
v -5.000000 0.292386 -0.503357
v -5.000000 0.292386 -0.450372
v -3.830549 0.292386 -0.132455
v -3.830549 0.292386 -0.185432
v -5.000000 0.292386 -0.185447
v -5.000000 0.292386 -0.132462
v -5.000000 0.292386 0.132462
v -5.000000 0.292386 0.185447
v -3.830549 0.292386 0.185455
v -3.830549 0.292386 0.132477
v -3.830549 0.292386 0.503364
v -3.830549 0.292386 0.450387
v -5.000000 0.292386 0.450372
v -5.000000 0.292386 0.503357
v -4.823985 0.292386 1.000000
v -3.980464 0.292386 1.000000
v -3.980464 0.292386 -1.000000
v -4.823985 0.292386 -1.000000
v 3.264629 -0.067386 1.000000
v 3.750299 -0.067386 1.000000
v 3.264629 0.067386 -1.000000
v 3.750299 0.067386 -1.000000
v 3.264629 0.067386 -0.874251
v 3.750299 0.067386 -0.874251
v 3.264629 0.067386 0.874251
v 3.750299 0.067386 0.874251
v 3.264629 0.367386 -1.000000
v 3.750299 0.367386 -1.000000
v 3.264629 0.367386 -0.874251
v 3.750299 0.367386 -0.874251
v 3.264629 0.367386 0.874251
v 3.750299 0.367386 0.874251
v 3.750299 -0.067386 -1.000000
v 3.264629 -0.067386 -1.000000
v 3.750299 0.067386 1.000000
v 3.264629 0.067386 1.000000
v 3.750299 -0.067386 -0.874251
v 3.264629 -0.067386 -0.874251
v 3.750299 -0.067386 0.874251
v 3.264629 -0.067386 0.874251
v 3.750299 0.367386 1.000000
v 3.264629 0.367386 1.000000
v 3.264629 0.067386 -0.715296
v 3.750299 0.067386 -0.715296
v 3.264629 0.067386 -0.556341
v 3.750299 0.067386 -0.556341
v 3.264629 0.067386 -0.397387
v 3.750299 0.067386 -0.397387
v 3.264629 0.067386 -0.238432
v 3.750299 0.067386 -0.238432
v 3.264629 0.067386 -0.079477
v 3.750299 0.067386 -0.079477
v 3.264629 0.067386 0.079477
v 3.750299 0.067386 0.079477
v 3.264629 0.067386 0.238432
v 3.750299 0.067386 0.238432
v 3.264629 0.067386 0.397387
v 3.750299 0.067386 0.397387
v 3.264629 0.067386 0.556342
v 3.750299 0.067386 0.556342
v 3.264629 0.067386 0.715296
v 3.750299 0.067386 0.715296
v 3.750299 -0.067386 -0.715296
v 3.264629 -0.067386 -0.715296
v 3.750299 -0.067386 -0.556342
v 3.264629 -0.067386 -0.556342
v 3.750299 -0.067386 -0.397387
v 3.264629 -0.067386 -0.397387
v 3.750299 -0.067386 -0.238432
v 3.264629 -0.067386 -0.238432
v 3.750299 -0.067386 -0.079477
v 3.264629 -0.067386 -0.079477
v 3.750299 -0.067386 0.079477
v 3.264629 -0.067386 0.079477
v 3.750299 -0.067386 0.238432
v 3.264629 -0.067386 0.238432
v 3.750299 -0.067386 0.397387
v 3.264629 -0.067386 0.397387
v 3.750299 -0.067386 0.556341
v 3.264629 -0.067386 0.556341
v 3.750299 -0.067386 0.715296
v 3.264629 -0.067386 0.715296
v 3.264629 0.217386 -1.000000
v 3.750299 0.217386 -1.000000
v 3.750299 0.217386 1.000000
v 3.264629 0.217386 1.000000
v 3.264629 0.217386 0.874251
v 3.750299 0.217386 0.874251
v 3.750299 -0.067386 -0.503357
v 3.264629 -0.067386 -0.503357
v 3.750299 -0.067386 -0.450372
v 3.264629 -0.067386 -0.450372
v 3.264629 0.067386 -0.503357
v 3.750299 0.067386 -0.503357
v 3.264629 0.067386 -0.450372
v 3.750299 0.067386 -0.450372
v 3.750299 -0.067386 -0.185447
v 3.264629 -0.067386 -0.185447
v 3.750299 -0.067386 -0.132462
v 3.264629 -0.067386 -0.132462
v 3.264629 0.067386 -0.185447
v 3.750299 0.067386 -0.185447
v 3.264629 0.067386 -0.132462
v 3.750299 0.067386 -0.132462
v 3.750299 -0.067386 0.132462
v 3.264629 -0.067386 0.132462
v 3.750299 -0.067386 0.185447
v 3.264629 -0.067386 0.185447
v 3.264629 0.067386 0.132462
v 3.750299 0.067386 0.132462
v 3.264629 0.067386 0.185447
v 3.750299 0.067386 0.185447
v 3.750299 -0.067386 0.450372
v 3.264629 -0.067386 0.450372
v 3.750299 -0.067386 0.503357
v 3.264629 -0.067386 0.503357
v 3.264629 0.067386 0.450372
v 3.750299 0.067386 0.450372
v 3.264629 0.067386 0.503357
v 3.750299 0.067386 0.503357
v 3.264629 0.292386 -1.000000
v 3.750299 0.292386 -1.000000
v 3.264629 0.292386 0.874251
v 3.750299 0.292386 0.874251
v 3.750299 0.292386 1.000000
v 3.264629 0.292386 1.000000
v 3.264629 0.217386 -0.874251
v 3.750299 0.217386 -0.874251
v 3.264629 0.292386 -0.874251
v 3.750299 0.292386 -0.874251
vn -1.0000 -0.0000 -0.0000
vn -0.0000 -0.0000 1.0000
vn -0.0000 -1.0000 -0.0000
vn 1.0000 -0.0000 -0.0000
vn -0.0000 -0.0000 -1.0000
vn -0.0000 1.0000 -0.0000
vn -0.0000 0.0002 -1.0000
vt 0.625000 0.083333
vt 0.625000 0.000000
vt 0.375000 0.996256
vt 0.625000 0.996256
vt 0.625000 1.000000
vt 0.375000 1.000000
vt 0.375000 0.166667
vt 0.625000 0.166667
vt 0.625000 0.250000
vt 0.375000 0.250000
vt 0.370068 0.666667
vt 0.375000 0.666667
vt 0.375000 0.750000
vt 0.370068 0.750000
vt 0.625000 0.666667
vt 0.625000 0.750000
vt 0.375000 0.495068
vt 0.625000 0.495068
vt 0.625000 0.500000
vt 0.375000 0.500000
vt 0.625000 0.583333
vt 0.375000 0.583333
vt 0.375000 0.659091
vt 0.625000 0.659091
vt 0.370068 0.500000
vt 0.370068 0.583333
vt 0.370068 0.659091
vt 0.375000 0.000000
vt 0.375000 0.083333
vt 0.375000 0.159091
vt 0.625000 0.159091
vt 0.629932 0.583333
vt 0.862276 0.659091
vt 0.871256 0.659091
vt 0.871256 0.666667
vt 0.862276 0.666667
vt 0.871256 0.590909
vt 0.871256 0.583333
vt 0.125000 0.659091
vt 0.128744 0.659091
vt 0.128744 0.666667
vt 0.125000 0.666667
vt 0.125000 0.500000
vt 0.128744 0.500000
vt 0.128744 0.583333
vt 0.125000 0.583333
vt 0.625000 0.253744
vt 0.375000 0.253744
vt 0.128744 0.750000
vt 0.125000 0.750000
vt 0.375000 0.987276
vt 0.625000 0.987276
vt 0.625000 0.754932
vt 0.875000 0.666667
vt 0.875000 0.750000
vt 0.871256 0.750000
vt 0.871256 0.500000
vt 0.875000 0.500000
vt 0.875000 0.583333
vt 0.871256 0.659091
vt 0.875000 0.659091
vt 0.862276 0.500000
vt 0.862276 0.583333
vt 0.862276 0.750000
vt 0.625000 0.262724
vt 0.625000 0.090909
vt 0.675676 0.666667
vt 0.762232 0.666667
vt 0.675676 0.666667
vt 0.625000 0.449324
vt 0.625000 0.362768
vt 0.625000 0.362768
vt 0.625000 0.280683
vt 0.762232 0.750000
vt 0.675676 0.750000
vt 0.844317 0.666667
vt 0.844317 0.750000
vt 0.675676 0.500000
vt 0.762232 0.500000
vt 0.762232 0.583333
vt 0.675676 0.583333
vt 0.844317 0.500000
vt 0.844317 0.583333
vt 0.625000 0.978297
vt 0.625000 0.969317
vt 0.625000 0.887232
vt 0.375000 0.800676
vt 0.625000 0.800676
vt 0.375000 0.887232
vt 0.375000 0.969317
vt 0.675676 0.659091
vt 0.762232 0.659091
vt 0.762232 0.666667
vt 0.844317 0.618687
vt 0.844317 0.621212
vt 0.853297 0.583333
vt 0.146703 0.659091
vt 0.155683 0.659091
vt 0.155683 0.666667
vt 0.146703 0.666667
vt 0.237768 0.659091
vt 0.237768 0.666667
vt 0.146703 0.500000
vt 0.155683 0.500000
vt 0.155683 0.583333
vt 0.146703 0.583333
vt 0.237768 0.500000
vt 0.237768 0.583333
vt 0.375000 0.271703
vt 0.625000 0.271703
vt 0.625000 0.280683
vt 0.375000 0.280683
vt 0.375000 0.362768
vt 0.155683 0.750000
vt 0.146703 0.750000
vt 0.237768 0.750000
vt 0.237768 0.590909
vt 0.155683 0.590909
vt 0.237768 0.598485
vt 0.155683 0.598485
vt 0.155683 0.603535
vt 0.237768 0.603535
vt 0.237768 0.606061
vt 0.155683 0.606061
vt 0.237768 0.613636
vt 0.155683 0.613636
vt 0.155683 0.618687
vt 0.237768 0.618687
vt 0.237768 0.621212
vt 0.155683 0.621212
vt 0.237768 0.628788
vt 0.155683 0.628788
vt 0.155683 0.633838
vt 0.237768 0.633838
vt 0.237768 0.636364
vt 0.155683 0.636364
vt 0.237768 0.643939
vt 0.155683 0.643939
vt 0.155683 0.648990
vt 0.237768 0.648990
vt 0.237768 0.651515
vt 0.155683 0.651515
vt 0.146703 0.590909
vt 0.146703 0.598485
vt 0.146703 0.603535
vt 0.146703 0.606061
vt 0.146703 0.613636
vt 0.146703 0.618687
vt 0.146703 0.621212
vt 0.146703 0.628788
vt 0.146703 0.633838
vt 0.146703 0.636364
vt 0.146703 0.643939
vt 0.146703 0.648990
vt 0.146703 0.651515
vt 0.762232 0.631313
vt 0.762232 0.628788
vt 0.762232 0.590909
vt 0.844317 0.590909
vt 0.844317 0.598485
vt 0.762232 0.598485
vt 0.762232 0.606061
vt 0.844317 0.606061
vt 0.844317 0.613636
vt 0.762232 0.613636
vt 0.844317 0.659091
vt 0.762232 0.621212
vt 0.844317 0.628788
vt 0.762232 0.636364
vt 0.844317 0.636364
vt 0.844317 0.643939
vt 0.762232 0.643939
vt 0.762232 0.651515
vt 0.844317 0.651515
vt 0.675676 0.583333
vt 0.762232 0.583333
vt 0.675676 0.590909
vt 0.675676 0.598485
vt 0.675676 0.603535
vt 0.762232 0.603535
vt 0.675676 0.606061
vt 0.675676 0.613636
vt 0.675676 0.618687
vt 0.762232 0.618687
vt 0.675676 0.621212
vt 0.675676 0.628788
vt 0.675676 0.633838
vt 0.762232 0.633838
vt 0.675676 0.636364
vt 0.675676 0.643939
vt 0.675676 0.648990
vt 0.762232 0.648990
vt 0.675676 0.651515
vt 0.625000 0.159091
vt 0.625000 0.151515
vt 0.625000 0.146465
vt 0.625000 0.143939
vt 0.625000 0.136364
vt 0.625000 0.131313
vt 0.625000 0.128788
vt 0.625000 0.121212
vt 0.625000 0.116162
vt 0.625000 0.113636
vt 0.625000 0.113636
vt 0.625000 0.106061
vt 0.625000 0.101010
vt 0.625000 0.098485
vt 0.875000 0.590909
vt 0.875000 0.598485
vt 0.871256 0.598485
vt 0.871256 0.603535
vt 0.875000 0.603535
vt 0.875000 0.606061
vt 0.871256 0.606061
vt 0.875000 0.613636
vt 0.871256 0.613636
vt 0.871256 0.618687
vt 0.875000 0.618687
vt 0.875000 0.621212
vt 0.871256 0.621212
vt 0.875000 0.628788
vt 0.871256 0.628788
vt 0.871256 0.633838
vt 0.875000 0.633838
vt 0.875000 0.636364
vt 0.871256 0.636364
vt 0.875000 0.643939
vt 0.871256 0.643939
vt 0.871256 0.648990
vt 0.875000 0.648990
vt 0.875000 0.651515
vt 0.871256 0.651515
vt 0.128744 0.590909
vt 0.125000 0.590909
vt 0.128744 0.598485
vt 0.125000 0.598485
vt 0.125000 0.603535
vt 0.128744 0.603535
vt 0.128744 0.606061
vt 0.125000 0.606061
vt 0.128744 0.613636
vt 0.125000 0.613636
vt 0.125000 0.618687
vt 0.128744 0.618687
vt 0.128744 0.621212
vt 0.125000 0.621212
vt 0.128744 0.628788
vt 0.125000 0.628788
vt 0.125000 0.633838
vt 0.128744 0.633838
vt 0.128744 0.636364
vt 0.125000 0.636364
vt 0.128744 0.643939
vt 0.125000 0.643939
vt 0.125000 0.648990
vt 0.128744 0.648990
vt 0.128744 0.651515
vt 0.125000 0.651515
vt 0.871256 0.651515
vt 0.871255 0.646465
vt 0.871256 0.643939
vt 0.871256 0.646465
vt 0.871256 0.636364
vt 0.871255 0.631313
vt 0.871256 0.628788
vt 0.871256 0.631313
vt 0.871256 0.621212
vt 0.871255 0.616162
vt 0.871256 0.613636
vt 0.871256 0.616162
vt 0.871256 0.606061
vt 0.871255 0.601010
vt 0.871255 0.590909
vt 0.862276 0.590909
vt 0.871255 0.598485
vt 0.862276 0.598485
vt 0.862276 0.603535
vt 0.871255 0.603535
vt 0.871255 0.606061
vt 0.862276 0.606061
vt 0.871255 0.613636
vt 0.862276 0.613636
vt 0.862276 0.618687
vt 0.871256 0.618687
vt 0.862276 0.621212
vt 0.862276 0.628788
vt 0.862276 0.633838
vt 0.871256 0.633838
vt 0.862276 0.636364
vt 0.862276 0.643939
vt 0.862276 0.648990
vt 0.871255 0.648990
vt 0.871255 0.651515
vt 0.862276 0.651515
vt 0.625000 0.090909
vt 0.375000 0.090909
vt 0.625000 0.098485
vt 0.375000 0.098485
vt 0.375000 0.103535
vt 0.625000 0.103535
vt 0.625000 0.106061
vt 0.375000 0.106061
vt 0.625000 0.113636
vt 0.375000 0.113636
vt 0.375000 0.118687
vt 0.625000 0.118687
vt 0.625000 0.121212
vt 0.375000 0.121212
vt 0.625000 0.128788
vt 0.375000 0.128788
vt 0.375000 0.133838
vt 0.625000 0.133838
vt 0.625000 0.136364
vt 0.375000 0.136364
vt 0.625000 0.143939
vt 0.375000 0.143939
vt 0.375000 0.148990
vt 0.625000 0.148990
vt 0.625000 0.151515
vt 0.375000 0.151515
vt 0.375000 0.590909
vt 0.370068 0.590909
vt 0.375000 0.598485
vt 0.370068 0.598485
vt 0.370068 0.603535
vt 0.375000 0.603535
vt 0.375000 0.606061
vt 0.370068 0.606061
vt 0.375000 0.613636
vt 0.370068 0.613636
vt 0.370068 0.618687
vt 0.375000 0.618687
vt 0.375000 0.621212
vt 0.370068 0.621212
vt 0.375000 0.628788
vt 0.370068 0.628788
vt 0.370068 0.633838
vt 0.375000 0.633838
vt 0.375000 0.636364
vt 0.370068 0.636364
vt 0.375000 0.643939
vt 0.370068 0.643939
vt 0.370068 0.648990
vt 0.375000 0.648990
vt 0.375000 0.651515
vt 0.370068 0.651515
vt 0.625000 0.590909
vt 0.625000 0.598485
vt 0.625000 0.603535
vt 0.625000 0.606061
vt 0.625000 0.613636
vt 0.625000 0.618687
vt 0.625000 0.621212
vt 0.625000 0.628788
vt 0.625000 0.633838
vt 0.625000 0.636364
vt 0.625000 0.643939
vt 0.625000 0.648990
vt 0.625000 0.651515
vt 0.844317 0.603535
vt 0.844317 0.633838
vt 0.844317 0.648990
vt 0.762232 0.646465
vt 0.762232 0.601010
vt 0.762232 0.616162
vt 0.625000 0.101010
vt 0.625000 0.101010
vt 0.625000 0.106061
vt 0.625000 0.116162
vt 0.625000 0.116162
vt 0.625000 0.131313
vt 0.625000 0.146465
vt 0.625000 0.449324
vt 0.629932 0.583333
vt 0.625000 0.148990
vt 0.871256 0.603535
vt 0.844317 0.601010
vt 0.844317 0.601010
vt 0.625000 0.601010
vt 0.375000 0.601010
vt 0.370068 0.601010
vt 0.375000 0.146465
vt 0.862276 0.601010
vt 0.128744 0.601010
vt 0.125000 0.601010
vt 0.875000 0.601010
vt 0.675676 0.601010
vt 0.155683 0.601010
vt 0.146703 0.601010
vt 0.237768 0.601010
vt 0.625000 0.133838
vt 0.844317 0.616162
vt 0.625000 0.616162
vt 0.375000 0.616162
vt 0.370068 0.616162
vt 0.375000 0.131313
vt 0.862276 0.616162
vt 0.128744 0.616162
vt 0.125000 0.616162
vt 0.875000 0.616162
vt 0.675676 0.616162
vt 0.155683 0.616162
vt 0.146703 0.616162
vt 0.237768 0.616162
vt 0.625000 0.118687
vt 0.844317 0.631313
vt 0.625000 0.631313
vt 0.375000 0.631313
vt 0.370068 0.631313
vt 0.375000 0.116162
vt 0.862276 0.631313
vt 0.128744 0.631313
vt 0.125000 0.631313
vt 0.875000 0.631313
vt 0.675676 0.631313
vt 0.155683 0.631313
vt 0.146703 0.631313
vt 0.237768 0.631313
vt 0.625000 0.103535
vt 0.871256 0.648990
vt 0.844317 0.646465
vt 0.625000 0.646465
vt 0.375000 0.646465
vt 0.370068 0.646465
vt 0.375000 0.101010
vt 0.862276 0.646465
vt 0.128744 0.646465
vt 0.125000 0.646465
vt 0.875000 0.646465
vt 0.625000 0.103535
vt 0.675676 0.646465
vt 0.155683 0.646465
vt 0.146703 0.646465
vt 0.237768 0.646465
vt 0.137724 0.646465
vt 0.137724 0.648990
vt 0.137724 0.643939
vt 0.853297 0.646465
vt 0.853297 0.648990
vt 0.853297 0.618687
vt 0.853297 0.616162
vt 0.853297 0.643939
vt 0.137724 0.631313
vt 0.137724 0.633838
vt 0.137724 0.628788
vt 0.853297 0.631313
vt 0.853297 0.633838
vt 0.853297 0.628788
vt 0.137724 0.616162
vt 0.137724 0.618687
vt 0.137724 0.613636
vt 0.853297 0.613636
vt 0.137724 0.601010
vt 0.137724 0.603535
vt 0.137724 0.598485
vt 0.853297 0.601010
vt 0.853297 0.603535
vt 0.853297 0.598485
vt 0.853297 0.666667
vt 0.853297 0.651515
vt 0.853297 0.659091
vt 0.853297 0.636364
vt 0.853297 0.621212
vt 0.853297 0.606061
vt 0.853297 0.590909
vt 0.137724 0.651515
vt 0.137724 0.659091
vt 0.137724 0.636364
vt 0.137724 0.621212
vt 0.137724 0.606061
vt 0.137724 0.590909
vt 0.137724 0.583333
vt 0.137724 0.666667
vt 0.137724 0.750000
vt 0.375000 0.262724
vt 0.137724 0.500000
vt 0.853297 0.750000
vt 0.853297 0.500000
vt 0.375000 0.978297
vt 0.675676 0.583333
vt 0.629932 0.666667
vt 0.629932 0.646465
vt 0.629932 0.648990
vt 0.629932 0.643939
vt 0.324324 0.646465
vt 0.324324 0.648990
vt 0.324324 0.643939
vt 0.629932 0.631313
vt 0.629932 0.633838
vt 0.629932 0.628788
vt 0.324324 0.631313
vt 0.324324 0.633838
vt 0.324324 0.628788
vt 0.629932 0.616162
vt 0.629932 0.618687
vt 0.629932 0.613636
vt 0.324324 0.616162
vt 0.324324 0.618687
vt 0.324324 0.613636
vt 0.629932 0.601010
vt 0.629932 0.603535
vt 0.629932 0.598485
vt 0.324324 0.601010
vt 0.324324 0.603535
vt 0.324324 0.598485
vt 0.324324 0.651515
vt 0.324324 0.659091
vt 0.324324 0.636364
vt 0.324324 0.621212
vt 0.324324 0.606061
vt 0.324324 0.590909
vt 0.324324 0.583333
vt 0.629932 0.651515
vt 0.629932 0.659091
vt 0.629932 0.636364
vt 0.629932 0.621212
vt 0.629932 0.606061
vt 0.629932 0.590909
vt 0.375000 0.754932
vt 0.629932 0.500000
vt 0.629932 0.750000
vt 0.625000 0.800676
vt 0.324324 0.666667
vt 0.324324 0.500000
vt 0.375000 0.449324
vt 0.324324 0.750000
s 0
usemtl Material
f 555/1/1 528/2/1 26/2/1 34/1/1
f 19/3/2 18/4/2 7/5/2 8/6/2
f 9/7/1 14/8/1 5/9/1 6/10/1
f 601/11/3 15/12/3 4/13/3 582/14/3
f 15/12/4 12/15/4 3/16/4 4/13/4
f 595/17/5 584/18/5 1/19/5 2/20/5
f 2/20/4 1/19/4 11/21/4 16/22/4
f 91/23/4 80/24/4 12/15/4 15/12/4
f 595/25/3 2/20/3 16/22/3 599/26/3
f 643/27/3 91/23/3 15/12/3 601/11/3
f 8/28/1 7/2/1 13/1/1 10/29/1
f 61/30/1 90/31/1 14/8/1 9/7/1
f 692/32/2 527/21/2 33/21/2 592/32/2
f 554/9/1 526/8/1 29/8/1 30/9/1
f 467/33/6 110/34/6 24/35/6 421/36/6
f 260/37/4 224/38/4 35/38/4 131/37/4
f 70/39/3 120/40/3 22/41/3 10/42/3
f 6/43/3 17/44/3 21/45/3 9/46/3
f 6/10/5 5/9/5 20/47/5 17/48/5
f 10/42/3 22/41/3 19/49/3 8/50/3
f 415/51/2 408/52/2 18/4/2 19/3/2
f 687/53/2 525/16/2 28/16/2 603/53/2
f 36/35/6 34/54/6 26/55/6 25/56/6
f 31/57/6 30/58/6 29/59/6 35/38/6
f 140/60/6 121/61/6 34/54/6 36/35/6
f 423/62/6 31/57/6 35/38/6 425/63/6
f 427/36/6 36/35/6 25/56/6 414/64/6
f 528/5/2 553/4/2 25/4/2 26/5/2
f 580/65/5 529/47/5 31/47/5 423/65/5
f 473/36/5 223/35/5 36/35/5 427/36/5
f 543/66/1 555/1/1 34/1/1 121/66/1
f 525/16/4 557/15/4 27/15/4 28/16/4
f 529/47/5 554/9/5 30/9/5 31/47/5
f 527/21/4 556/19/4 32/19/4 33/21/4
f 685/67/5 558/68/5 58/68/5 593/69/5
f 683/70/5 530/71/5 54/72/5 589/70/5
f 530/71/5 531/73/5 53/73/5 54/72/5
f 593/69/6 58/68/6 59/74/6 604/75/6
f 58/68/6 57/76/6 60/77/6 59/74/6
f 589/78/6 54/79/6 56/80/6 591/81/6
f 54/79/6 53/82/6 55/83/6 56/80/6
f 578/84/2 532/85/2 60/85/2 413/84/2
f 532/85/2 533/86/2 59/86/2 60/85/2
f 581/87/2 598/88/2 47/86/2 38/89/2
f 38/89/2 47/86/2 48/85/2 37/90/2
f 623/91/6 150/92/6 44/93/6 587/67/6
f 323/94/1 201/95/1 191/95/1 322/94/1
f 469/96/2 240/83/2 55/83/2 426/96/2
f 447/97/3 170/98/3 52/99/3 411/100/3
f 170/98/3 180/101/3 51/102/3 52/99/3
f 405/103/3 46/104/3 50/105/3 409/106/3
f 46/104/3 45/107/3 49/108/3 50/105/3
f 405/109/5 418/110/5 39/111/5 46/112/5
f 46/112/5 39/111/5 40/71/5 45/113/5
f 411/100/3 52/99/3 37/114/3 416/115/3
f 52/99/3 51/102/3 38/116/3 37/114/3
f 50/105/3 49/108/3 171/117/3 161/118/3
f 161/118/3 171/117/3 172/119/3 162/120/3
f 282/121/3 284/122/3 173/123/3 163/124/3
f 163/124/3 173/123/3 174/125/3 164/126/3
f 318/127/3 320/128/3 175/129/3 165/130/3
f 165/130/3 175/129/3 176/131/3 166/132/3
f 354/133/3 356/134/3 177/135/3 167/136/3
f 167/136/3 177/135/3 178/137/3 168/138/3
f 390/139/3 392/140/3 179/141/3 169/142/3
f 169/142/3 179/141/3 180/101/3 170/98/3
f 409/106/3 50/105/3 161/118/3 429/143/3
f 429/143/3 161/118/3 162/120/3 431/144/3
f 483/145/3 282/121/3 163/124/3 433/146/3
f 433/146/3 163/124/3 164/126/3 435/147/3
f 491/148/3 318/127/3 165/130/3 437/149/3
f 437/149/3 165/130/3 166/132/3 439/150/3
f 499/151/3 354/133/3 167/136/3 441/152/3
f 441/152/3 167/136/3 168/138/3 443/153/3
f 507/154/3 390/139/3 169/142/3 445/155/3
f 445/155/3 169/142/3 170/98/3 447/97/3
f 572/156/4 560/157/4 184/157/4 357/156/4
f 141/158/6 151/159/6 152/160/6 142/161/6
f 143/162/6 153/163/6 154/164/6 144/165/6
f 222/166/1 235/76/1 57/76/1 219/166/1
f 145/167/6 155/95/6 156/168/6 146/157/6
f 147/169/6 157/170/6 158/171/6 148/172/6
f 201/95/3 200/167/3 213/167/3 214/95/3
f 149/173/6 159/174/6 160/166/6 150/92/6
f 585/175/6 42/176/6 141/158/6 605/177/6
f 605/177/6 141/158/6 142/161/6 607/178/6
f 657/179/6 278/180/6 143/162/6 609/181/6
f 609/181/6 143/162/6 144/165/6 611/182/6
f 665/183/6 314/184/6 145/167/6 613/185/6
f 613/185/6 145/167/6 146/157/6 615/186/6
f 673/187/6 350/188/6 147/169/6 617/189/6
f 617/189/6 147/169/6 148/172/6 619/190/6
f 681/191/6 386/192/6 149/173/6 621/193/6
f 621/193/6 149/173/6 150/92/6 623/91/6
f 526/8/1 534/194/1 130/194/1 29/8/1
f 534/194/1 535/195/1 129/195/1 130/194/1
f 564/196/1 536/197/1 128/197/1 273/196/1
f 536/197/1 537/198/1 127/198/1 128/197/1
f 568/199/1 538/200/1 126/200/1 309/199/1
f 538/200/1 539/201/1 125/201/1 126/200/1
f 570/202/1 540/203/1 124/204/1 345/202/1
f 540/203/1 541/205/1 123/205/1 124/204/1
f 576/206/1 542/207/1 122/207/1 381/206/1
f 542/207/1 543/66/1 121/66/1 122/207/1
f 35/38/6 29/59/6 130/208/6 131/37/6
f 131/37/6 130/208/6 129/209/6 132/210/6
f 276/211/6 273/212/6 128/213/6 133/214/6
f 133/214/6 128/213/6 127/215/6 134/216/6
f 312/217/6 309/218/6 126/219/6 135/220/6
f 135/220/6 126/219/6 125/221/6 136/222/6
f 348/223/6 345/224/6 124/225/6 137/226/6
f 137/226/6 124/225/6 123/227/6 138/228/6
f 384/229/6 381/230/6 122/231/6 139/232/6
f 139/232/6 122/231/6 121/61/6 140/60/6
f 9/46/3 21/45/3 111/233/3 61/234/3
f 61/234/3 111/233/3 112/235/3 62/236/3
f 262/237/3 272/238/3 113/239/3 63/240/3
f 63/240/3 113/239/3 114/241/3 64/242/3
f 298/243/3 308/244/3 115/245/3 65/246/3
f 65/246/3 115/245/3 116/247/3 66/248/3
f 334/249/3 344/250/3 117/251/3 67/252/3
f 67/252/3 117/251/3 118/253/3 68/254/3
f 370/255/3 380/256/3 119/257/3 69/258/3
f 69/258/3 119/257/3 120/40/3 70/39/3
f 223/35/4 251/34/4 140/60/4 36/35/4
f 251/34/4 252/259/4 139/232/4 140/60/4
f 393/260/4 253/261/4 138/228/4 383/262/4
f 253/261/4 254/263/4 137/226/4 138/228/4
f 359/264/4 255/265/4 136/222/4 347/266/4
f 255/265/4 256/267/4 135/220/4 136/222/4
f 325/268/4 257/269/4 134/216/4 311/270/4
f 257/269/4 258/271/4 133/214/4 134/216/4
f 289/272/4 259/210/4 132/210/4 275/272/4
f 259/210/4 260/37/4 131/37/4 132/210/4
f 419/63/6 23/38/6 101/273/6 449/274/6
f 449/274/6 101/273/6 102/275/6 451/276/6
f 479/277/6 270/278/6 103/279/6 453/280/6
f 453/280/6 103/279/6 104/281/6 455/282/6
f 487/283/6 306/284/6 105/267/6 457/285/6
f 457/285/6 105/267/6 106/265/6 459/286/6
f 495/287/6 342/288/6 107/263/6 461/289/6
f 461/289/6 107/263/6 108/261/6 463/290/6
f 503/291/6 378/292/6 109/293/6 465/294/6
f 465/294/6 109/293/6 110/34/6 467/33/6
f 10/29/1 13/1/1 81/295/1 70/296/1
f 70/296/1 81/295/1 82/297/1 69/298/1
f 369/299/1 374/300/1 83/301/1 68/302/1
f 68/302/1 83/301/1 84/303/1 67/304/1
f 333/305/1 338/306/1 85/307/1 66/308/1
f 66/308/1 85/307/1 86/309/1 65/310/1
f 297/311/1 302/312/1 87/313/1 64/314/1
f 64/314/1 87/313/1 88/315/1 63/316/1
f 261/317/1 266/318/1 89/319/1 62/320/1
f 62/320/1 89/319/1 90/31/1 61/30/1
f 599/26/3 16/22/3 100/321/3 625/322/3
f 625/322/3 100/321/3 99/323/3 627/324/3
f 653/325/3 267/326/3 98/327/3 629/328/3
f 629/328/3 98/327/3 97/329/3 631/330/3
f 661/331/3 303/332/3 96/333/3 633/334/3
f 633/334/3 96/333/3 95/335/3 635/336/3
f 669/337/3 339/338/3 94/339/3 637/340/3
f 637/340/3 94/339/3 93/341/3 639/342/3
f 677/343/3 375/344/3 92/345/3 641/346/3
f 641/346/3 92/345/3 91/23/3 643/27/3
f 16/22/4 11/21/4 71/347/4 100/321/4
f 100/321/4 71/347/4 72/348/4 99/323/4
f 267/326/4 264/349/4 73/350/4 98/327/4
f 98/327/4 73/350/4 74/351/4 97/329/4
f 303/332/4 300/352/4 75/353/4 96/333/4
f 96/333/4 75/353/4 76/354/4 95/335/4
f 339/338/4 336/355/4 77/356/4 94/339/4
f 94/339/4 77/356/4 78/357/4 93/341/4
f 375/344/4 372/358/4 79/359/4 92/345/4
f 92/345/4 79/359/4 80/24/4 91/23/4
f 220/92/6 219/166/6 57/76/6 58/93/6
f 56/176/6 55/83/6 187/159/6 181/158/6
f 294/180/6 286/360/6 189/163/6 182/162/6
f 330/184/6 322/94/6 191/95/6 183/167/6
f 358/188/6 364/361/6 192/170/6 185/169/6
f 398/192/6 400/362/6 193/174/6 186/173/6
f 204/170/3 203/169/3 217/169/3 218/170/3
f 545/158/4 559/176/4 56/176/4 181/158/4
f 574/363/4 551/172/4 216/172/4 397/363/4
f 545/158/4 181/158/4 208/158/4 549/158/4
f 365/361/1 204/170/1 192/170/1 364/361/1
f 186/173/6 193/174/6 219/174/6 220/173/6
f 562/364/4 549/161/4 208/161/4 293/364/4
f 240/83/1 196/159/1 187/159/1 55/83/1
f 189/163/1 199/163/1 202/163/1 190/163/1
f 401/362/1 206/174/1 193/174/1 400/362/1
f 566/365/4 550/165/4 210/165/4 329/365/4
f 558/93/4 552/92/4 220/92/4 58/93/4
f 287/360/1 199/163/1 189/163/1 286/360/1
f 41/83/1 151/159/1 196/159/1 240/83/1
f 151/159/2 141/158/2 195/158/2 196/159/2
f 141/158/4 42/176/4 194/176/4 195/158/4
f 280/360/1 153/163/1 199/163/1 287/360/1
f 153/163/2 143/162/2 198/162/2 199/163/2
f 277/364/4 142/161/4 209/161/4 295/364/4
f 142/161/7 152/160/7 197/160/7 209/161/7
f 313/365/4 144/165/4 211/165/4 331/365/4
f 144/165/7 154/164/7 202/164/7 211/165/7
f 155/95/2 145/167/2 200/167/2 201/95/2
f 316/94/1 155/95/1 201/95/1 323/94/1
f 352/361/1 157/170/1 204/170/1 365/361/1
f 157/170/2 147/169/2 203/169/2 204/170/2
f 146/157/7 156/168/7 214/168/7 213/157/7
f 349/156/4 146/157/4 213/157/4 367/156/4
f 388/362/1 159/174/1 206/174/1 401/362/1
f 159/174/2 149/173/2 205/173/2 206/174/2
f 385/363/4 148/172/4 217/172/4 403/363/4
f 148/172/7 158/171/7 218/171/7 217/172/7
f 44/93/4 150/92/4 221/92/4 207/93/4
f 150/92/7 160/166/7 222/166/7 221/92/7
f 160/166/1 43/76/1 235/76/1 222/166/1
f 181/158/6 187/159/6 188/159/6 208/158/6
f 196/159/3 195/158/3 209/158/3 197/159/3
f 187/159/1 196/159/1 197/159/1 188/159/1
f 182/162/6 189/163/6 190/163/6 210/162/6
f 546/162/4 182/162/4 210/162/4 550/162/4
f 199/163/3 198/162/3 211/162/3 202/163/3
f 544/167/4 183/167/4 184/167/4 560/167/4
f 183/167/6 191/95/6 212/95/6 184/167/6
f 191/95/1 201/95/1 214/95/1 212/95/1
f 185/169/6 192/170/6 215/170/6 216/169/6
f 192/170/1 204/170/1 218/170/1 215/170/1
f 547/169/4 185/169/4 216/169/4 551/169/4
f 548/173/4 186/173/4 220/173/4 552/173/4
f 206/174/3 205/173/3 221/173/3 222/174/3
f 193/174/1 206/174/1 222/174/1 219/174/1
f 102/275/4 101/273/4 260/37/4 259/210/4
f 269/272/4 102/275/4 259/210/4 289/272/4
f 104/281/4 103/279/4 258/271/4 257/269/4
f 305/268/4 104/281/4 257/269/4 325/268/4
f 106/265/4 105/267/4 256/267/4 255/265/4
f 341/264/4 106/265/4 255/265/4 359/264/4
f 108/261/4 107/263/4 254/263/4 253/261/4
f 377/260/4 108/261/4 253/261/4 393/260/4
f 110/34/4 109/293/4 252/259/4 251/34/4
f 24/35/4 110/34/4 251/34/4 223/35/4
f 82/297/1 81/295/1 250/66/1 249/207/1
f 373/366/1 82/297/1 249/207/1 395/367/1
f 84/303/1 83/301/1 248/368/1 247/203/1
f 337/369/1 84/303/1 247/203/1 361/370/1
f 86/309/1 85/307/1 246/201/1 245/200/1
f 301/371/1 86/309/1 245/200/1 327/199/1
f 88/315/1 87/313/1 244/198/1 243/197/1
f 265/372/1 88/315/1 243/197/1 291/196/1
f 90/31/1 89/319/1 242/195/1 241/194/1
f 14/8/1 90/31/1 241/194/1 227/8/1
f 420/96/2 41/83/2 240/83/2 469/96/2
f 48/85/2 47/86/2 239/86/2 238/85/2
f 407/84/2 48/85/2 238/85/2 471/84/2
f 40/71/5 39/111/5 237/73/5 236/71/5
f 583/70/5 40/71/5 236/71/5 645/373/5
f 587/67/5 44/93/5 207/68/5 649/67/5
f 11/21/4 1/19/4 233/19/4 229/21/4
f 20/47/5 5/9/5 228/9/5 232/47/5
f 3/16/4 12/15/4 234/15/4 226/16/4
f 81/295/1 13/1/1 231/1/1 250/66/1
f 421/36/5 24/35/5 223/35/5 473/36/5
f 417/65/5 20/47/5 232/47/5 475/65/5
f 7/5/2 18/4/2 225/4/2 230/5/2
f 597/53/2 3/16/2 226/16/2 647/53/2
f 101/273/4 23/38/4 224/38/4 260/37/4
f 5/9/1 14/8/1 227/8/1 228/9/1
f 586/374/2 11/21/2 229/21/2 690/32/2
f 13/1/1 7/2/1 230/2/1 231/1/1
f 89/319/1 266/318/1 292/375/1 242/195/1
f 266/318/1 265/372/1 291/196/1 292/375/1
f 103/279/4 270/278/4 290/376/4 258/271/4
f 270/278/4 269/272/4 289/272/4 290/376/4
f 143/162/4 278/180/4 296/180/4 198/162/4
f 278/180/4 277/364/4 295/364/4 296/180/4
f 152/160/1 279/377/1 288/378/1 197/160/1
f 279/377/1 280/360/1 287/360/1 288/378/1
f 197/160/1 288/378/1 285/377/1 188/160/1
f 288/378/1 287/360/1 286/360/1 285/377/1
f 546/162/4 561/180/4 294/180/4 182/162/4
f 561/180/4 562/364/4 293/364/4 294/180/4
f 208/161/6 188/160/6 285/377/6 293/364/6
f 293/364/6 285/377/6 286/360/6 294/180/6
f 99/323/4 72/348/4 263/379/4 268/380/4
f 268/380/4 263/379/4 264/349/4 267/326/4
f 627/324/3 99/323/3 268/380/3 651/381/3
f 651/381/3 268/380/3 267/326/3 653/325/3
f 63/316/1 88/315/1 265/372/1 262/382/1
f 262/382/1 265/372/1 266/318/1 261/317/1
f 451/276/6 102/275/6 269/272/6 477/383/6
f 477/383/6 269/272/6 270/278/6 479/277/6
f 258/271/4 290/376/4 276/211/4 133/214/4
f 290/376/4 289/272/4 275/272/4 276/211/4
f 62/236/3 112/235/3 271/384/3 261/385/3
f 261/385/3 271/384/3 272/238/3 262/237/3
f 132/210/6 129/209/6 274/386/6 275/272/6
f 275/272/6 274/386/6 273/212/6 276/211/6
f 535/195/1 563/375/1 274/375/1 129/195/1
f 563/375/1 564/196/1 273/196/1 274/375/1
f 607/178/6 142/161/6 277/364/6 655/387/6
f 655/387/6 277/364/6 278/180/6 657/179/6
f 431/144/3 162/120/3 281/388/3 481/389/3
f 481/389/3 281/388/3 282/121/3 483/145/3
f 162/120/3 172/119/3 283/390/3 281/388/3
f 281/388/3 283/390/3 284/122/3 282/121/3
f 87/313/1 302/312/1 328/391/1 244/198/1
f 302/312/1 301/371/1 327/199/1 328/391/1
f 105/267/4 306/284/4 326/284/4 256/267/4
f 306/284/4 305/268/4 325/268/4 326/284/4
f 154/164/1 315/392/1 324/392/1 202/164/1
f 315/392/1 316/94/1 323/94/1 324/392/1
f 145/167/4 314/184/4 332/184/4 200/167/4
f 314/184/4 313/365/4 331/365/4 332/184/4
f 544/167/4 565/184/4 330/184/4 183/167/4
f 565/184/4 566/365/4 329/365/4 330/184/4
f 210/165/6 190/164/6 321/392/6 329/365/6
f 329/365/6 321/392/6 322/94/6 330/184/6
f 97/329/4 74/351/4 299/393/4 304/394/4
f 304/394/4 299/393/4 300/352/4 303/332/4
f 631/330/3 97/329/3 304/394/3 659/395/3
f 659/395/3 304/394/3 303/332/3 661/331/3
f 65/310/1 86/309/1 301/371/1 298/396/1
f 298/396/1 301/371/1 302/312/1 297/311/1
f 455/282/6 104/281/6 305/268/6 485/397/6
f 485/397/6 305/268/6 306/284/6 487/283/6
f 256/267/4 326/284/4 312/217/4 135/220/4
f 326/284/4 325/268/4 311/270/4 312/217/4
f 64/242/3 114/241/3 307/398/3 297/399/3
f 297/399/3 307/398/3 308/244/3 298/243/3
f 134/216/6 127/215/6 310/400/6 311/270/6
f 311/270/6 310/400/6 309/218/6 312/217/6
f 537/198/1 567/391/1 310/391/1 127/198/1
f 567/391/1 568/199/1 309/199/1 310/391/1
f 611/182/6 144/165/6 313/365/6 663/401/6
f 663/401/6 313/365/6 314/184/6 665/183/6
f 435/147/3 164/126/3 317/402/3 489/403/3
f 489/403/3 317/402/3 318/127/3 491/148/3
f 164/126/3 174/125/3 319/404/3 317/402/3
f 317/402/3 319/404/3 320/128/3 318/127/3
f 202/164/1 324/392/1 321/392/1 190/164/1
f 324/392/1 323/94/1 322/94/1 321/392/1
f 85/307/1 338/306/1 362/405/1 246/201/1
f 338/306/1 337/369/1 361/370/1 362/405/1
f 107/263/4 342/288/4 360/288/4 254/263/4
f 342/288/4 341/264/4 359/264/4 360/288/4
f 147/169/4 350/188/4 368/188/4 203/169/4
f 350/188/4 349/156/4 367/156/4 368/188/4
f 156/168/1 351/406/1 366/406/1 214/168/1
f 351/406/1 352/361/1 365/361/1 366/406/1
f 214/168/1 366/406/1 363/406/1 212/168/1
f 366/406/1 365/361/1 364/361/1 363/406/1
f 184/157/6 212/168/6 363/406/6 357/156/6
f 357/156/6 363/406/6 364/361/6 358/188/6
f 95/335/4 76/354/4 335/407/4 340/408/4
f 340/408/4 335/407/4 336/355/4 339/338/4
f 635/336/3 95/335/3 340/408/3 667/409/3
f 667/409/3 340/408/3 339/338/3 669/337/3
f 67/304/1 84/303/1 337/369/1 334/410/1
f 334/410/1 337/369/1 338/306/1 333/305/1
f 459/286/6 106/265/6 341/264/6 493/411/6
f 493/411/6 341/264/6 342/288/6 495/287/6
f 254/263/4 360/288/4 348/223/4 137/226/4
f 360/288/4 359/264/4 347/266/4 348/223/4
f 66/248/3 116/247/3 343/412/3 333/413/3
f 333/413/3 343/412/3 344/250/3 334/249/3
f 136/222/6 125/221/6 346/414/6 347/266/6
f 347/266/6 346/414/6 345/224/6 348/223/6
f 539/201/1 569/405/1 346/405/1 125/201/1
f 569/405/1 570/202/1 345/202/1 346/405/1
f 615/186/6 146/157/6 349/156/6 671/415/6
f 671/415/6 349/156/6 350/188/6 673/187/6
f 547/169/4 571/188/4 358/188/4 185/169/4
f 571/188/4 572/156/4 357/156/4 358/188/4
f 439/150/3 166/132/3 353/416/3 497/417/3
f 497/417/3 353/416/3 354/133/3 499/151/3
f 166/132/3 176/131/3 355/418/3 353/416/3
f 353/416/3 355/418/3 356/134/3 354/133/3
f 83/301/1 374/300/1 396/419/1 248/368/1
f 374/300/1 373/366/1 395/367/1 396/419/1
f 109/293/4 378/292/4 394/420/4 252/259/4
f 378/292/4 377/260/4 393/260/4 394/420/4
f 149/173/4 386/192/4 404/192/4 205/173/4
f 386/192/4 385/363/4 403/363/4 404/192/4
f 158/171/1 387/421/1 402/421/1 218/171/1
f 387/421/1 388/362/1 401/362/1 402/421/1
f 218/171/1 402/421/1 399/421/1 215/171/1
f 402/421/1 401/362/1 400/362/1 399/421/1
f 548/173/4 573/192/4 398/192/4 186/173/4
f 573/192/4 574/363/4 397/363/4 398/192/4
f 216/172/6 215/171/6 399/421/6 397/363/6
f 397/363/6 399/421/6 400/362/6 398/192/6
f 93/341/4 78/357/4 371/422/4 376/423/4
f 376/423/4 371/422/4 372/358/4 375/344/4
f 639/342/3 93/341/3 376/423/3 675/424/3
f 675/424/3 376/423/3 375/344/3 677/343/3
f 69/298/1 82/297/1 373/366/1 370/425/1
f 370/425/1 373/366/1 374/300/1 369/299/1
f 463/290/6 108/261/6 377/260/6 501/426/6
f 501/426/6 377/260/6 378/292/6 503/291/6
f 252/259/4 394/420/4 384/229/4 139/232/4
f 394/420/4 393/260/4 383/262/4 384/229/4
f 68/254/3 118/253/3 379/427/3 369/428/3
f 369/428/3 379/427/3 380/256/3 370/255/3
f 138/228/6 123/227/6 382/429/6 383/262/6
f 383/262/6 382/429/6 381/230/6 384/229/6
f 541/205/1 575/430/1 382/430/1 123/205/1
f 575/430/1 576/206/1 381/206/1 382/430/1
f 619/190/6 148/172/6 385/363/6 679/431/6
f 679/431/6 385/363/6 386/192/6 681/191/6
f 443/153/3 168/138/3 389/432/3 505/433/3
f 505/433/3 389/432/3 390/139/3 507/154/3
f 168/138/3 178/137/3 391/434/3 389/432/3
f 389/432/3 391/434/3 392/140/3 390/139/3
f 379/427/3 506/435/3 508/436/3 380/256/3
f 506/435/3 505/433/3 507/154/3 508/436/3
f 118/253/3 444/437/3 506/435/3 379/427/3
f 444/437/3 443/153/3 505/433/3 506/435/3
f 387/421/6 502/438/6 504/439/6 388/362/6
f 488/440/4 486/441/4 514/441/4 516/440/4
f 158/171/6 464/442/6 502/438/6 387/421/6
f 464/442/6 463/290/6 501/426/6 502/438/6
f 343/412/3 498/443/3 500/444/3 344/250/3
f 498/443/3 497/417/3 499/151/3 500/444/3
f 116/247/3 440/445/3 498/443/3 343/412/3
f 440/445/3 439/150/3 497/417/3 498/443/3
f 351/406/6 494/446/6 496/447/6 352/361/6
f 501/426/1 503/291/1 523/291/1 521/426/1
f 156/168/6 460/448/6 494/446/6 351/406/6
f 460/448/6 459/286/6 493/411/6 494/446/6
f 307/398/3 490/449/3 492/450/3 308/244/3
f 490/449/3 489/403/3 491/148/3 492/450/3
f 114/241/3 436/451/3 490/449/3 307/398/3
f 436/451/3 435/147/3 489/403/3 490/449/3
f 315/392/6 486/441/6 488/440/6 316/94/6
f 496/447/4 494/446/4 518/446/4 520/447/4
f 154/164/6 456/452/6 486/441/6 315/392/6
f 456/452/6 455/282/6 485/397/6 486/441/6
f 271/384/3 482/453/3 484/454/3 272/238/3
f 482/453/3 481/389/3 483/145/3 484/454/3
f 112/235/3 432/455/3 482/453/3 271/384/3
f 432/455/3 431/144/3 481/389/3 482/453/3
f 279/377/6 478/456/6 480/457/6 280/360/6
f 504/439/4 502/438/4 522/438/4 524/439/4
f 152/160/6 452/458/6 478/456/6 279/377/6
f 452/458/6 451/276/6 477/383/6 478/456/6
f 39/111/5 418/110/5 476/110/5 237/73/5
f 418/110/5 417/65/5 475/65/5 476/110/5
f 43/76/5 422/459/5 474/459/5 235/76/5
f 422/459/5 421/36/5 473/36/5 474/459/5
f 18/4/2 408/52/2 472/52/2 225/4/2
f 408/52/2 407/84/2 471/84/2 472/52/2
f 23/38/2 419/63/2 470/63/2 224/38/2
f 419/63/2 420/96/2 469/96/2 470/63/2
f 159/174/6 466/460/6 468/461/6 160/166/6
f 466/460/6 465/294/6 467/33/6 468/461/6
f 388/362/6 504/439/6 466/460/6 159/174/6
f 504/439/6 503/291/6 465/294/6 466/460/6
f 157/170/6 462/462/6 464/442/6 158/171/6
f 462/462/6 461/289/6 463/290/6 464/442/6
f 352/361/6 496/447/6 462/462/6 157/170/6
f 496/447/6 495/287/6 461/289/6 462/462/6
f 155/95/6 458/463/6 460/448/6 156/168/6
f 458/463/6 457/285/6 459/286/6 460/448/6
f 316/94/6 488/440/6 458/463/6 155/95/6
f 488/440/6 487/283/6 457/285/6 458/463/6
f 153/163/6 454/464/6 456/452/6 154/164/6
f 454/464/6 453/280/6 455/282/6 456/452/6
f 280/360/6 480/457/6 454/464/6 153/163/6
f 480/457/6 479/277/6 453/280/6 454/464/6
f 151/159/6 450/465/6 452/458/6 152/160/6
f 450/465/6 449/274/6 451/276/6 452/458/6
f 41/83/6 420/96/6 450/465/6 151/159/6
f 420/96/6 419/63/6 449/274/6 450/465/6
f 119/257/3 446/466/3 448/467/3 120/40/3
f 446/466/3 445/155/3 447/97/3 448/467/3
f 380/256/3 508/436/3 446/466/3 119/257/3
f 508/436/3 507/154/3 445/155/3 446/466/3
f 117/251/3 442/468/3 444/437/3 118/253/3
f 442/468/3 441/152/3 443/153/3 444/437/3
f 344/250/3 500/444/3 442/468/3 117/251/3
f 500/444/3 499/151/3 441/152/3 442/468/3
f 115/245/3 438/469/3 440/445/3 116/247/3
f 438/469/3 437/149/3 439/150/3 440/445/3
f 308/244/3 492/450/3 438/469/3 115/245/3
f 492/450/3 491/148/3 437/149/3 438/469/3
f 113/239/3 434/470/3 436/451/3 114/241/3
f 434/470/3 433/146/3 435/147/3 436/451/3
f 272/238/3 484/454/3 434/470/3 113/239/3
f 484/454/3 483/145/3 433/146/3 434/470/3
f 111/233/3 430/471/3 432/455/3 112/235/3
f 430/471/3 429/143/3 431/144/3 432/455/3
f 21/45/3 410/472/3 430/471/3 111/233/3
f 410/472/3 409/106/3 429/143/3 430/471/3
f 22/41/3 412/473/3 415/474/3 19/49/3
f 412/473/3 411/100/3 416/115/3 415/474/3
f 17/48/5 20/47/5 417/65/5 406/475/5
f 406/475/5 417/65/5 418/110/5 405/109/5
f 17/44/3 406/476/3 410/472/3 21/45/3
f 406/476/3 405/103/3 409/106/3 410/472/3
f 120/40/3 448/467/3 412/473/3 22/41/3
f 448/467/3 447/97/3 411/100/3 412/473/3
f 224/38/2 470/63/2 425/63/2 35/38/2
f 470/63/2 469/96/2 426/96/2 425/63/2
f 553/4/2 577/52/2 414/52/2 25/4/2
f 577/52/2 578/84/2 413/84/2 414/52/2
f 235/76/5 474/459/5 428/459/5 57/76/5
f 474/459/5 473/36/5 427/36/5 428/459/5
f 531/73/5 579/110/5 424/110/5 53/73/5
f 579/110/5 580/65/5 423/65/5 424/110/5
f 57/76/6 428/459/6 413/477/6 60/77/6
f 428/459/6 427/36/6 414/64/6 413/477/6
f 53/82/6 424/478/6 426/96/6 55/83/6
f 424/478/6 423/62/6 425/63/6 426/96/6
f 37/90/2 48/85/2 407/84/2 416/479/2
f 416/479/2 407/84/2 408/52/2 415/51/2
f 160/166/6 468/461/6 422/459/6 43/76/6
f 468/461/6 467/33/6 421/36/6 422/459/6
f 522/438/6 521/426/6 523/291/6 524/439/6
f 518/446/6 517/411/6 519/287/6 520/447/6
f 514/441/6 513/397/6 515/283/6 516/440/6
f 510/456/6 509/383/6 511/277/6 512/457/6
f 493/411/1 495/287/1 519/287/1 517/411/1
f 480/457/4 478/456/4 510/456/4 512/457/4
f 478/456/5 477/383/5 509/383/5 510/456/5
f 485/397/1 487/283/1 515/283/1 513/397/1
f 486/441/5 485/397/5 513/397/5 514/441/5
f 477/383/1 479/277/1 511/277/1 509/383/1
f 494/446/5 493/411/5 517/411/5 518/446/5
f 502/438/5 501/426/5 521/426/5 522/438/5
f 479/277/2 480/457/2 512/457/2 511/277/2
f 487/283/2 488/440/2 516/440/2 515/283/2
f 495/287/2 496/447/2 520/447/2 519/287/2
f 503/291/2 504/439/2 524/439/2 523/291/2
f 476/110/5 475/65/5 580/65/5 579/110/5
f 237/73/5 476/110/5 579/110/5 531/73/5
f 472/52/2 471/84/2 578/84/2 577/52/2
f 225/4/2 472/52/2 577/52/2 553/4/2
f 396/419/1 395/367/1 576/206/1 575/430/1
f 248/368/1 396/419/1 575/430/1 541/205/1
f 404/192/4 403/363/4 574/363/4 573/192/4
f 205/173/4 404/192/4 573/192/4 548/173/4
f 368/188/4 367/156/4 572/156/4 571/188/4
f 203/169/4 368/188/4 571/188/4 547/169/4
f 362/405/1 361/370/1 570/202/1 569/405/1
f 246/201/1 362/405/1 569/405/1 539/201/1
f 328/391/1 327/199/1 568/199/1 567/391/1
f 244/198/1 328/391/1 567/391/1 537/198/1
f 332/184/4 331/365/4 566/365/4 565/184/4
f 200/167/4 332/184/4 565/184/4 544/167/4
f 292/375/1 291/196/1 564/196/1 563/375/1
f 242/195/1 292/375/1 563/375/1 535/195/1
f 296/180/4 295/364/4 562/364/4 561/180/4
f 198/162/4 296/180/4 561/180/4 546/162/4
f 205/173/4 548/173/4 552/173/4 221/173/4
f 203/169/4 547/169/4 551/169/4 217/169/4
f 200/167/4 544/167/4 560/167/4 213/167/4
f 198/162/4 546/162/4 550/162/4 211/162/4
f 207/93/4 221/92/4 552/92/4 558/93/4
f 331/365/4 211/165/4 550/165/4 566/365/4
f 295/364/4 209/161/4 549/161/4 562/364/4
f 195/158/4 545/158/4 549/158/4 209/158/4
f 403/363/4 217/172/4 551/172/4 574/363/4
f 195/158/4 194/176/4 559/176/4 545/158/4
f 249/207/1 250/66/1 543/66/1 542/207/1
f 395/367/1 249/207/1 542/207/1 576/206/1
f 247/203/1 248/368/1 541/205/1 540/203/1
f 361/370/1 247/203/1 540/203/1 570/202/1
f 245/200/1 246/201/1 539/201/1 538/200/1
f 327/199/1 245/200/1 538/200/1 568/199/1
f 243/197/1 244/198/1 537/198/1 536/197/1
f 291/196/1 243/197/1 536/197/1 564/196/1
f 241/194/1 242/195/1 535/195/1 534/194/1
f 227/8/1 241/194/1 534/194/1 526/8/1
f 367/156/4 213/157/4 560/157/4 572/156/4
f 238/85/2 239/86/2 533/86/2 532/85/2
f 471/84/2 238/85/2 532/85/2 578/84/2
f 236/71/5 237/73/5 531/73/5 530/71/5
f 645/373/5 236/71/5 530/71/5 683/70/5
f 649/67/5 207/68/5 558/68/5 685/67/5
f 229/21/4 233/19/4 556/19/4 527/21/4
f 232/47/5 228/9/5 554/9/5 529/47/5
f 226/16/4 234/15/4 557/15/4 525/16/4
f 250/66/1 231/1/1 555/1/1 543/66/1
f 475/65/5 232/47/5 529/47/5 580/65/5
f 230/5/2 225/4/2 553/4/2 528/5/2
f 647/53/2 226/16/2 525/16/2 687/53/2
f 228/9/1 227/8/1 526/8/1 554/9/1
f 690/32/2 229/21/2 527/21/2 692/32/2
f 231/1/1 230/2/1 528/2/1 555/1/1
f 194/176/2 689/480/2 691/480/2 559/176/2
f 239/86/2 648/88/2 688/88/2 533/86/2
f 648/88/2 647/53/2 687/53/2 688/88/2
f 234/15/5 650/481/5 686/481/5 557/15/5
f 649/67/1 685/67/1 691/67/1 689/67/1
f 233/19/5 646/18/5 684/18/5 556/19/5
f 646/18/5 645/373/5 683/70/5 684/18/5
f 371/422/6 680/482/6 682/483/6 372/358/6
f 680/482/6 679/431/6 681/191/6 682/483/6
f 78/357/6 620/484/6 680/482/6 371/422/6
f 620/484/6 619/190/6 679/431/6 680/482/6
f 391/434/3 676/485/3 678/486/3 392/140/3
f 676/485/3 675/424/3 677/343/3 678/486/3
f 178/137/3 640/487/3 676/485/3 391/434/3
f 640/487/3 639/342/3 675/424/3 676/485/3
f 335/407/6 672/488/6 674/489/6 336/355/6
f 672/488/6 671/415/6 673/187/6 674/489/6
f 76/354/6 616/490/6 672/488/6 335/407/6
f 616/490/6 615/186/6 671/415/6 672/488/6
f 355/418/3 668/491/3 670/492/3 356/134/3
f 668/491/3 667/409/3 669/337/3 670/492/3
f 176/131/3 636/493/3 668/491/3 355/418/3
f 636/493/3 635/336/3 667/409/3 668/491/3
f 299/393/6 664/494/6 666/495/6 300/352/6
f 664/494/6 663/401/6 665/183/6 666/495/6
f 74/351/6 612/496/6 664/494/6 299/393/6
f 612/496/6 611/182/6 663/401/6 664/494/6
f 319/404/3 660/497/3 662/498/3 320/128/3
f 660/497/3 659/395/3 661/331/3 662/498/3
f 174/125/3 632/499/3 660/497/3 319/404/3
f 632/499/3 631/330/3 659/395/3 660/497/3
f 263/379/6 656/500/6 658/501/6 264/349/6
f 656/500/6 655/387/6 657/179/6 658/501/6
f 72/348/6 608/502/6 656/500/6 263/379/6
f 608/502/6 607/178/6 655/387/6 656/500/6
f 283/390/3 652/503/3 654/504/3 284/122/3
f 652/503/3 651/381/3 653/325/3 654/504/3
f 172/119/3 628/505/3 652/503/3 283/390/3
f 628/505/3 627/324/3 651/381/3 652/503/3
f 42/176/2 585/175/2 689/480/2 194/176/2
f 585/175/2 586/374/2 690/32/2 689/480/2
f 47/86/2 598/88/2 648/88/2 239/86/2
f 598/88/2 597/53/2 647/53/2 648/88/2
f 12/15/5 588/481/5 650/481/5 234/15/5
f 588/481/5 587/67/5 649/67/5 650/481/5
f 1/19/5 584/18/5 646/18/5 233/19/5
f 584/18/5 583/70/5 645/373/5 646/18/5
f 179/141/3 642/506/3 644/507/3 180/101/3
f 642/506/3 641/346/3 643/27/3 644/507/3
f 392/140/3 678/486/3 642/506/3 179/141/3
f 678/486/3 677/343/3 641/346/3 642/506/3
f 177/135/3 638/508/3 640/487/3 178/137/3
f 638/508/3 637/340/3 639/342/3 640/487/3
f 356/134/3 670/492/3 638/508/3 177/135/3
f 670/492/3 669/337/3 637/340/3 638/508/3
f 175/129/3 634/509/3 636/493/3 176/131/3
f 634/509/3 633/334/3 635/336/3 636/493/3
f 320/128/3 662/498/3 634/509/3 175/129/3
f 662/498/3 661/331/3 633/334/3 634/509/3
f 173/123/3 630/510/3 632/499/3 174/125/3
f 630/510/3 629/328/3 631/330/3 632/499/3
f 284/122/3 654/504/3 630/510/3 173/123/3
f 654/504/3 653/325/3 629/328/3 630/510/3
f 171/117/3 626/511/3 628/505/3 172/119/3
f 626/511/3 625/322/3 627/324/3 628/505/3
f 49/108/3 600/512/3 626/511/3 171/117/3
f 600/512/3 599/26/3 625/322/3 626/511/3
f 79/359/6 622/513/6 624/514/6 80/24/6
f 622/513/6 621/193/6 623/91/6 624/514/6
f 372/358/6 682/483/6 622/513/6 79/359/6
f 682/483/6 681/191/6 621/193/6 622/513/6
f 77/356/6 618/515/6 620/484/6 78/357/6
f 618/515/6 617/189/6 619/190/6 620/484/6
f 336/355/6 674/489/6 618/515/6 77/356/6
f 674/489/6 673/187/6 617/189/6 618/515/6
f 75/353/6 614/516/6 616/490/6 76/354/6
f 614/516/6 613/185/6 615/186/6 616/490/6
f 300/352/6 666/495/6 614/516/6 75/353/6
f 666/495/6 665/183/6 613/185/6 614/516/6
f 73/350/6 610/517/6 612/496/6 74/351/6
f 610/517/6 609/181/6 611/182/6 612/496/6
f 264/349/6 658/501/6 610/517/6 73/350/6
f 658/501/6 657/179/6 609/181/6 610/517/6
f 71/347/6 606/518/6 608/502/6 72/348/6
f 606/518/6 605/177/6 607/178/6 608/502/6
f 11/21/6 586/374/6 606/518/6 71/347/6
f 586/374/6 585/175/6 605/177/6 606/518/6
f 80/24/6 624/514/6 588/481/6 12/15/6
f 624/514/6 623/91/6 587/67/6 588/481/6
f 4/13/2 3/16/2 597/53/2 582/519/2
f 582/519/2 597/53/2 598/88/2 581/87/2
f 32/19/6 590/520/6 592/32/6 33/21/6
f 590/520/6 589/78/6 591/81/6 592/32/6
f 27/15/6 594/481/6 603/521/6 28/16/6
f 594/481/6 593/69/6 604/75/6 603/521/6
f 556/19/5 684/18/5 590/18/5 32/19/5
f 684/18/5 683/70/5 589/70/5 590/18/5
f 557/15/5 686/481/5 594/481/5 27/15/5
f 686/481/5 685/67/5 593/69/5 594/481/5
f 533/86/2 688/88/2 604/522/2 59/86/2
f 688/88/2 687/53/2 603/53/2 604/522/2
f 559/176/2 691/480/2 591/81/2 56/80/2
f 691/480/2 692/32/2 592/32/2 591/81/2
f 180/101/3 644/507/3 602/523/3 51/102/3
f 644/507/3 643/27/3 601/11/3 602/523/3
f 45/107/3 596/524/3 600/512/3 49/108/3
f 596/524/3 595/25/3 599/26/3 600/512/3
f 45/113/5 40/71/5 583/70/5 596/525/5
f 596/525/5 583/70/5 584/18/5 595/17/5
f 51/102/3 602/523/3 581/526/3 38/116/3
f 602/523/3 601/11/3 582/14/3 581/526/3
f 650/481/3 649/67/3 689/67/3 690/481/3
f 685/67/6 686/481/6 692/481/6 691/67/6
f 686/481/4 650/481/4 690/481/4 692/481/4
